<svg width="42" height="42" viewBox="0 0 42 42" fill="none" xmlns="http://www.w3.org/2000/svg">
<g clip-path="url(#clip0_116_10)">
<path d="M1.40002 14V7.00002C1.40002 5.51481 1.99002 4.09043 3.04023 3.04023C4.09043 1.99002 5.51481 1.40002 7.00002 1.40002H14M28 1.40002H35C36.4852 1.40002 37.9096 1.99002 38.9598 3.04023C40.01 4.09043 40.6 5.51481 40.6 7.00002V14M1.40002 28V35C1.40002 36.4852 1.99002 37.9096 3.04023 38.9598C4.09043 40.01 5.51481 40.6 7.00002 40.6H14M40.6 28V35C40.6 36.4852 40.01 37.9096 38.9598 38.9598C37.9096 40.01 36.4852 40.6 35 40.6H28M5.60002 21H36.4" stroke="#D9D9D9" stroke-width="3"/>
</g>
<defs>
<clipPath id="clip0_116_10">
<rect width="42" height="42" fill="white"/>
</clipPath>
</defs>
</svg>
