<svg width="50" height="50" viewBox="0 0 50 50" fill="none" xmlns="http://www.w3.org/2000/svg">
<path d="M37.5 32.8125C36.7188 32.8125 35.9375 32.5 35.3125 31.875L30.625 27.1875C30 26.5625 29.6875 25.7812 29.6875 25C29.6875 24.2188 30 23.4375 30.625 22.8125L35.3125 18.125C35.9375 17.5 36.7188 17.1875 37.5 17.1875C38.2812 17.1875 39.0625 17.5 39.6875 18.125L44.375 22.8125C45 23.4375 45.3125 24.2188 45.3125 25C45.3125 25.7812 45 26.5625 44.375 27.1875L39.6875 31.875C39.0625 32.5 38.2812 32.8125 37.5 32.8125ZM37.5 20.3125L32.8125 25L37.5 29.6875L42.1875 25L37.5 20.3125ZM25 20.3125C24.2188 20.3125 23.4375 20 22.8125 19.375L18.125 14.6875C17.5 14.0625 17.1875 13.2812 17.1875 12.5C17.1875 11.7188 17.5 10.9375 18.125 10.3125L22.8125 5.625C23.4375 5 24.2188 4.6875 25 4.6875C25.7812 4.6875 26.5625 5 27.1875 5.625L31.875 10.3125C32.5 10.9375 32.8125 11.7188 32.8125 12.5C32.8125 13.2812 32.5 14.0625 31.875 14.6875L27.1875 19.375C26.5625 20 25.7812 20.3125 25 20.3125ZM25 7.8125L20.3125 12.5L25 17.1875L29.6875 12.5L25 7.8125ZM25 45.3125C24.2188 45.3125 23.4375 45 22.8125 44.375L18.125 39.6875C17.5 39.0625 17.1875 38.2812 17.1875 37.5C17.1875 36.7188 17.5 35.9375 18.125 35.3125L22.8125 30.625C23.4375 30 24.2188 29.6875 25 29.6875C25.7812 29.6875 26.5625 30 27.1875 30.625L31.875 35.3125C32.5 35.9375 32.8125 36.7188 32.8125 37.5C32.8125 38.2812 32.5 39.0625 31.875 39.6875L27.1875 44.375C26.5625 45 25.7812 45.3125 25 45.3125ZM25 32.8125L20.3125 37.5L25 42.1875L29.6875 37.5L25 32.8125ZM12.5 32.8125C11.7188 32.8125 10.9375 32.5 10.3125 31.875L5.625 27.1875C5 26.5625 4.6875 25.7812 4.6875 25C4.6875 24.2188 5 23.4375 5.625 22.8125L10.3125 18.125C10.9375 17.5 11.7188 17.1875 12.5 17.1875C13.2812 17.1875 14.0625 17.5 14.6875 18.125L19.375 22.8125C20 23.4375 20.3125 24.2188 20.3125 25C20.3125 25.7812 20 26.5625 19.375 27.1875L14.6875 31.875C14.0625 32.5 13.2812 32.8125 12.5 32.8125ZM12.5 20.3125L7.8125 25L12.5 29.6875L17.1875 25L12.5 20.3125Z" fill="#D9D9D9"/>
</svg>
