<svg width="55" height="55" viewBox="0 0 55 55" fill="none" xmlns="http://www.w3.org/2000/svg">
<path d="M27.5 9.16669C21.1818 9.16669 16.0416 14.3069 16.0416 20.625H20.625C20.625 16.8346 23.7095 13.75 27.5 13.75C31.2904 13.75 34.375 16.8346 34.375 20.625C34.375 23.0748 33.3345 23.9823 30.981 25.7927C30.1056 26.4665 29.1179 27.2273 28.1714 28.1715C25.1648 31.1759 25.1968 34.139 25.2083 34.375V38.9584H29.7916V34.3544C29.7916 34.2994 29.8443 32.9771 31.4118 31.4119C32.1452 30.6786 32.9747 30.0415 33.7745 29.425C36.2037 27.555 38.9583 25.4375 38.9583 20.625C38.9583 14.3069 33.8181 9.16669 27.5 9.16669ZM25.2083 41.25H29.7916V45.8334H25.2083V41.25Z" fill="#D9D9D9"/>
</svg>
